<?xml version="1.0" encoding="UTF-8"?>
<svg width="600" height="400" xmlns="http://www.w3.org/2000/svg">
 <title>BRead bun</title>
 <g>
  <title>Layer 1</title>
  <g externalResourcesRequired="false" id="g923">
   <path fill="#000000" id="path910" d="m171.102219,122.220673c-9.728409,-1.711563 -20.176788,-2.047646 -30.042557,-0.082726c-42.892494,8.544136 -81.32822,46.077415 -102.730122,79.619987c-7.440281,11.662064 -15.373301,27.379074 -12.738411,41.34256c1.215811,6.439102 5.423761,12.127151 7.32695,18.374481c4.337299,14.229858 7.49942,25.565735 21.91312,34.503754c33.466499,20.751648 79.721901,20.652924 118.256187,24.258881c38.15976,3.570374 76.221039,3.540527 114.560715,4.416809c26.096405,0.595947 60.902496,-0.938843 87.11969,-3.265533c33.115479,-2.937592 54.441589,-7.887817 86.569092,-14.638092c33.508301,-7.039764 74.399139,-26.974915 97.087128,-51.019012c6.885925,-7.298111 17.874207,-20.217422 12.752258,-30.5439c-2.664429,-5.371094 -7.454163,-11.586441 -11.687988,-17.109116c-26.717285,-34.858643 -65.925323,-69.058121 -110.469757,-83.237465c-15.997833,-5.092033 -29.845001,-4.843338 -37.512604,-1.312035c-24.075073,-21.88208 -41.798676,-24.653847 -58.496246,-28.907539c-23.459106,-5.976288 -68.478943,-0.399345 -75.910797,6.184624c-26.837311,-6.534431 -51.193604,-7.453178 -79.171051,0.042458c-12.966278,3.47393 -26.454788,7.012215 -26.825607,21.371864l0,0z"/>
   <path fill="#fee5b2" id="path913" d="m47.944,240.276001c1.800903,-13.274002 149.122299,-51.533997 168.724503,-42.649002c-1.063004,-9.128998 -10.985199,-26.097992 -15.513397,-34.444c-11.387909,-15.630005 -17.006607,-26.742996 -30.274704,-31.942001c-11.671707,-4.573997 -23.580978,0.805008 -34.139099,5.057999c-26.488098,10.669006 -50.574203,29.473007 -68.344704,50.529999c-8.766998,10.387009 -16.917999,23.166 -21.750496,35.600006c-1.950005,5.018997 -4.255203,14.173004 1.297897,17.847l0,0z"/>
   <path fill="#fee5b2" id="path911" d="m295.039124,101.846786l18.503082,17.208626c2.635193,2.710014 9.37735,10.690788 11.443848,15.327965c4.167358,8.012833 106.967377,45.533066 113.46286,81.155426c21.473389,-1.514771 88.776306,-26.966827 103.430298,-10.335632c4.698181,5.330902 8.243103,16.059448 9.408447,22.984344l9.118835,-3.379028c-21.555847,-36.061035 -53.420197,-65.79184 -92.910431,-84.1996c-11.986267,-6.903687 -34.730927,-13.54837 -46.671814,-9.875351c13.865509,19.737961 21.728546,29.56041 27.440521,53.46109c0.513824,3.836792 3.604004,14.541504 -1.247131,20.27211c-1.695404,-4.551224 -3.741516,-12.663422 -5.805206,-17.638031c-9.88855,-23.82782 -18.747894,-38.281021 -31.492462,-53.822388c-14.699493,-17.924286 -44.318451,-30.774811 -69.102966,-33.256531c-15.390503,-1.542274 -30.332703,1.487206 -45.577881,2.097m-113.328873,16.077667c9.966415,4.236328 13.621552,8.24865 19.70932,17.18483l3.624512,6.840454c4.815277,-8.842728 14.117615,-18.309685 23.475876,-21.725037c22.309769,-8.141045 43.56897,-4.605118 59.951172,13.045853c10.810577,11.64711 18.632599,28.179565 25.217957,42.074112c3.404877,9.410431 7.338562,19.527222 10.846405,20.187439c4.266113,0.54808 7.033783,-8.333038 9.052246,-11.160843c-3.797546,0.254105 -5.674927,-6.336533 -7.178986,-9.704788c-5.389252,-12.073181 -5.999969,-19.479767 -14.891357,-31.477112c-10.952271,-14.778839 -30.154144,-35.339874 -49.947296,-39.847351c-13.040222,-2.968628 -31.048386,-0.423347 -44.136642,1.381958c-10.747772,1.483742 -29.354614,3.961563 -35.723206,13.200485z"/>
   <path fill="#f9cb98" id="path912" d="m327.54599,184.725998c-5.530975,-0.804001 -8.444,-11.306 -11.757996,-17.212997c-12.528992,-28.363998 -24.860992,-51.899002 -63.862991,-51.885002c-7.429001,0.001999 -13.910995,0.969002 -20.94101,3.289001c-8.380997,2.764999 -25.298996,6.315002 -27.091995,14.459999c-0.136002,5.869995 0.343994,6.749008 3.093002,14.173004c3.149994,10.927002 6.098999,22.235001 6.863998,32.388c0.313004,4.164001 1.791,12.412994 -3.878998,14.891998c-6.184998,0.677994 -13.210007,-7.319 -16.205002,-11.464005c-8.466003,-11.716003 -16.397995,-25.11499 -30.531998,-31.703995c-37.377998,-17.423004 -84.156799,27.550003 -104.711201,51.347992c-7.2728,8.419006 -23.367901,21.861008 -18.912399,34.331009c2.457497,6.880997 13.707897,13.203003 19.439598,17.845993c31.316998,25.37001 61.327,27.19899 99.949993,31.891006c53.602005,6.509003 70.887009,11.984009 124.623016,11.613983c7.418976,-0.051971 50.602997,-4.924988 58.22699,-5.009979c44.520996,-0.494019 90.372009,4.035004 132.576996,-8.234009c23.57901,-6.855988 44.516022,-26.487 63.173981,-42.587997c4.309021,-3.716995 22.894043,-10.936996 22.894043,-16.539993c-0.002014,-5.229004 -14.268005,-17.225006 -17.619995,-21.117004c-12.780029,-14.837997 -35.234009,-33.815002 -53.205017,-42.740997c-7.368011,-3.660004 -28.468018,-14.843002 -36.674011,-11.671005c-5.320007,3.703003 -3.05899,10.690002 -2.787994,15.365997c0.76001,12.742004 9.427002,37.229004 -3.863007,43.561005c-8.190002,1.589005 -24.041992,-66.796005 -51.156006,-79.906998c-9.174988,-6.125008 -27.380981,-13.287003 -37.34198,-14.496002c-10.533997,-1.649002 -13.946014,-2.834 -25.615997,-2.742004c-8.434021,-0.007996 -11.445007,3.474998 -13.433014,6.007004c-1.020996,4.435997 1.546997,5.465996 5.114014,12.798004c8.54599,22.548996 11.569977,41.089996 8.404999,52.603989m98.224976,-58.018997l1.232025,1.149002l-1.232025,-1.149002z"/>
   <path fill="#fee5b2" id="path915" d="m330.762329,178.789886l1.231873,1.148407l-1.231873,-1.148407m-126.879074,13.780823l1.231842,1.148422l-1.231842,-1.148422z"/>
   <path fill="#7f3f00" id="path916" d="m37.51889,232.594818c2.786419,15.099243 5.986568,37.325958 17.30714,48.650391c20.06905,20.072968 59.962017,22.450165 87.233631,25.492279c56.267792,6.277191 112.12291,7.522064 168.761505,7.862c42.753235,0.256042 84.084412,-3.161011 128.11084,-12.6922c34.812836,-11.512726 74.354919,-20.534576 102.24231,-44.626923c7.224731,-6.241608 25.555786,-20.992859 21.375977,-32.185181c-4.271912,-11.441559 -17.015259,7.222321 -19.674683,10.262146c-25.316772,28.93515 -71.080322,36.144867 -107.388763,44.694702c-29.636719,6.977722 -57.775543,9.75946 -88.301575,9.294342c-6.340271,-0.096527 -43.890015,0.799866 -50.274628,1.022644c-56.427917,1.964905 -87.598907,-2.878143 -143.76445,-9.07724c-16.515228,-1.822479 -36.777237,-3.416931 -52.629715,-8.86264c-15.107231,-5.188477 -27.179672,-9.487183 -39.40686,-19.241699c-8.327198,-6.643494 -13.61039,-16.167786 -23.590729,-20.592621l-0.000011,0l0.000011,0z"/>
  </g>
 </g>
</svg>